<?xml version="1.0" encoding="utf-8"?>
<!-- Generator: Adobe Illustrator 16.0.0, SVG Export Plug-In . SVG Version: 6.00 Build 0)  -->
<!DOCTYPE svg PUBLIC "-//W3C//DTD SVG 1.1//EN" "http://www.w3.org/Graphics/SVG/1.1/DTD/svg11.dtd">
<svg version="1.1" id="Layer_4" xmlns="http://www.w3.org/2000/svg" xmlns:xlink="http://www.w3.org/1999/xlink" x="0px" y="0px"
	 width="100px" height="100px" viewBox="0 0 100 100" enable-background="new 0 0 100 100" xml:space="preserve">
<path d="M86.334,41.893H13.666c-2.762,0-5,2.239-5,5v31.424c0,2.761,2.238,5,5,5h72.668c2.762,0,5-2.239,5-5V46.893
	C91.334,44.131,89.096,41.893,86.334,41.893z M70.473,46.858h5.988v2.237h-5.988V46.858z M79.961,60.358v5.987h-5.988v-5.987H79.961
	z M51.203,49.65h5.986v5.987h-5.986V49.65z M47.029,59.084h5.988v5.987h-5.988V59.084z M40.316,49.65h5.988v5.987h-5.988V49.65z
	 M36.145,59.084h5.986v5.987h-5.986V59.084z M29.611,49.65H35.6v5.987h-5.988V49.65z M25.439,59.084h5.986v5.987h-5.986V59.084z
	 M18.545,49.65h5.988v5.987h-5.988V49.65z M14.373,59.084h5.986v5.987h-5.986V59.084z M25.803,74.233h-5.986v-5.987h5.986V74.233z
	 M36.869,74.233h-5.986v-5.987h5.986V74.233z M47.574,74.233h-5.986v-5.987h5.986V74.233z M58.461,74.233h-5.988v-5.987h5.988
	V74.233z M58.361,64.822v-5.987h5.988v-5.167h5.986v5.167v0.82v5.167H64.35H58.361z M74.836,74.221h-5.988v-5.987h5.988V74.221z
	 M84.586,74.471h-5.988v-5.987h5.988V74.471z M85.211,49.096h-5.988v-2.237h5.988V49.096z M27,38.983
	c-0.014-4.371,0.137-7.739,3.293-11.04c1.039-1.088,3.072-1.14,3.773-2.403c1.34-2.419,0.961-5.225,0.934-7.89
	c-0.014-1.29,1.986-1.289,2,0c0.031,3.044,0.752,9.47-3.234,10.695c-4.77,1.465-4.779,6.478-4.766,10.638
	C29.004,40.273,27.004,40.273,27,38.983z"/>
</svg>
