<?xml version="1.0" encoding="iso-8859-1"?>
<!-- Generator: Adobe Illustrator 16.0.4, SVG Export Plug-In . SVG Version: 6.00 Build 0)  -->
<!DOCTYPE svg PUBLIC "-//W3C//DTD SVG 1.1//EN" "http://www.w3.org/Graphics/SVG/1.1/DTD/svg11.dtd">
<svg version="1.1" id="Capa_1" xmlns="http://www.w3.org/2000/svg" xmlns:xlink="http://www.w3.org/1999/xlink" x="0px" y="0px"
	 width="24.16px" height="21.396px" viewBox="0 0 24.16 21.396" style="enable-background:new 0 0 24.16 21.396;"
	 xml:space="preserve">
<g>
	<path style="fill-rule:evenodd;clip-rule:evenodd;fill:#231F20;" d="M3.196,0h18.34v13.755H3.196V0L3.196,0z M4.722,1.529v10.698
		h15.285V1.529H4.722z"/>
	<path style="fill-rule:evenodd;clip-rule:evenodd;fill:#231F20;" d="M0,21.396c4.022,0,8.05,0,12.075,0s8.055,0,12.084,0
		c-0.681-1.305-1.29-2.472-1.837-3.521c-0.493-0.946-0.943-1.807-1.352-2.592c-2.966,0-5.932,0-8.895,0c-2.962,0-5.926,0-8.887,0
		c-0.41,0.786-0.859,1.646-1.353,2.592C1.29,18.925,0.681,20.092,0,21.396z"/>
</g>
<g>
</g>
<g>
</g>
<g>
</g>
<g>
</g>
<g>
</g>
<g>
</g>
<g>
</g>
<g>
</g>
<g>
</g>
<g>
</g>
<g>
</g>
<g>
</g>
<g>
</g>
<g>
</g>
<g>
</g>
</svg>
