<?xml version="1.0" encoding="utf-8"?>
<!-- Generator: Adobe Illustrator 16.0.4, SVG Export Plug-In . SVG Version: 6.00 Build 0)  -->
<!DOCTYPE svg PUBLIC "-//W3C//DTD SVG 1.1//EN" "http://www.w3.org/Graphics/SVG/1.1/DTD/svg11.dtd">
<svg version="1.1" id="Capa_1" xmlns="http://www.w3.org/2000/svg" xmlns:xlink="http://www.w3.org/1999/xlink" x="0px" y="0px"
	 width="64px" height="64px" viewBox="0 0 64 64" enable-background="new 0 0 64 64" xml:space="preserve">
<g>
	<path d="M58.177,48.254C58,46.477,56.516,45.1,54.719,45.1h-0.664c2.164-1.048,3.664-3.248,3.664-5.793V17.194
		c0-3.556-2.917-6.449-6.501-6.449H12.78c-3.584,0-6.5,2.892-6.5,6.449v22.115c0,2.545,1.499,4.743,3.664,5.791H9.28
		c-1.779,0-3.25,1.352-3.451,3.155L5.78,48.254V48.6h0.042c0.177,1.777,1.663,3.154,3.458,3.154h45.438
		c1.778,0,3.249-1.352,3.451-3.154h0.05v-0.346H58.177z M8.429,39.309V17.195c0-2.371,1.952-4.299,4.351-4.299v-0.001h38.438
		c2.399,0,4.351,1.928,4.351,4.299v22.115c0,2.368-1.95,4.299-4.351,4.299H12.78C10.381,43.607,8.429,41.677,8.429,39.309z
		 M57.199,48.409v0.002c-0.082,1.313-1.17,2.343-2.481,2.343H9.28c-1.315,0-2.406-1.035-2.483-2.299
		C6.873,47.135,7.963,46.1,9.28,46.1h45.439c1.314,0,2.404,1.034,2.482,2.297L57.199,48.409z"/>
	<path d="M52.824,39.74V15.987c0-0.297-0.241-0.537-0.538-0.537h-40.72c-0.297,0-0.537,0.24-0.537,0.537V39.74
		c0,0.297,0.24,0.537,0.537,0.537h40.72C52.583,40.277,52.824,40.037,52.824,39.74z M51.749,38.203c0,0.553-0.447,1-1,1H13.103
		c-0.553,0-1-0.447-1-1V17.524c0-0.553,0.447-1,1-1h37.646c0.553,0,1,0.448,1,1V38.203z"/>
	<path d="M35.074,47.531h-6.15c-0.539,0-0.978,0.4-0.978,0.896s0.439,0.896,0.978,0.896h6.15c0.539,0,0.978-0.402,0.978-0.896
		C36.052,47.934,35.613,47.531,35.074,47.531z"/>
</g>
</svg>
