<?xml version="1.0" encoding="iso-8859-1"?>
<!-- Generator: Adobe Illustrator 16.0.4, SVG Export Plug-In . SVG Version: 6.00 Build 0)  -->
<!DOCTYPE svg PUBLIC "-//W3C//DTD SVG 1.1//EN" "http://www.w3.org/Graphics/SVG/1.1/DTD/svg11.dtd">
<svg version="1.1" id="Capa_1" xmlns="http://www.w3.org/2000/svg" xmlns:xlink="http://www.w3.org/1999/xlink" x="0px" y="0px"
	 width="18.799px" height="19.042px" viewBox="0 0 18.799 19.042" style="enable-background:new 0 0 18.799 19.042;"
	 xml:space="preserve">
<path style="fill-rule:evenodd;clip-rule:evenodd;fill:#231F20;" d="M3.126,0c1.726,0,3.126,1.399,3.126,3.124
	c0,0.605-0.172,1.169-0.469,1.647l8.399,8.4c0.241-0.131,0.502-0.231,0.776-0.295V6.326c-1.468-0.256-2.584-1.537-2.584-3.077
	c0-1.726,1.4-3.125,3.126-3.125c1.727,0,3.126,1.399,3.126,3.125c0,1.433-0.966,2.641-2.282,3.009v6.608
	c1.403,0.307,2.454,1.557,2.454,3.052c0,1.725-1.4,3.125-3.127,3.125c-1.726,0-3.125-1.399-3.125-3.125
	c0-0.684,0.22-1.316,0.593-1.831l-8.33-8.33C4.531,5.935,4.224,6.07,3.895,6.153v6.438c1.354,0.342,2.357,1.569,2.357,3.029
	c0,1.725-1.4,3.125-3.126,3.125C1.399,18.745,0,17.345,0,15.62c0-1.514,1.078-2.777,2.509-3.063V6.188C1.078,5.901,0,4.639,0,3.124
	C0,1.399,1.399,0,3.126,0z"/>
<g>
</g>
<g>
</g>
<g>
</g>
<g>
</g>
<g>
</g>
<g>
</g>
<g>
</g>
<g>
</g>
<g>
</g>
<g>
</g>
<g>
</g>
<g>
</g>
<g>
</g>
<g>
</g>
<g>
</g>
</svg>
