<?xml version="1.0" encoding="utf-8"?>
<!-- Generator: Adobe Illustrator 16.0.4, SVG Export Plug-In . SVG Version: 6.00 Build 0)  -->
<!DOCTYPE svg PUBLIC "-//W3C//DTD SVG 1.1//EN" "http://www.w3.org/Graphics/SVG/1.1/DTD/svg11.dtd">
<svg version="1.1" id="Layer_1" xmlns="http://www.w3.org/2000/svg" xmlns:xlink="http://www.w3.org/1999/xlink" x="0px" y="0px"
	 width="50px" height="50px" viewBox="0 0 50 50" enable-background="new 0 0 50 50" xml:space="preserve">
<g>
	<polygon points="27,32 23,32 23,33.386 19,34.193 19,35 31,35 31,34.193 27,33.386 	"/>
	<path d="M12.5,15v16h25V15H12.5z M26.611,20.693c0.063,0.062,0.066,0.164,0.005,0.229c-0.032,0.033-0.075,0.051-0.118,0.051
		c-0.04,0-0.081-0.017-0.112-0.047l-0.229-0.22c-0.064-0.062-0.067-0.166-0.004-0.229c0.062-0.063,0.166-0.066,0.229-0.004
		L26.611,20.693z M25,18.078c0.717,0,1.298,0.582,1.298,1.299c0,0.658-0.499,1.182-1.135,1.264v0.033
		c0,0.092-0.073,0.164-0.163,0.164s-0.163-0.072-0.163-0.164v-0.033c-0.636-0.082-1.135-0.604-1.135-1.264
		C23.702,18.66,24.283,18.078,25,18.078z M25,23.758c-0.089,0-0.163-0.072-0.163-0.162v-0.324c0-0.09,0.073-0.162,0.163-0.162
		s0.163,0.072,0.163,0.162v0.324C25.163,23.686,25.089,23.758,25,23.758z M25.163,24.245v0.323c0,0.09-0.073,0.162-0.163,0.162
		s-0.163-0.072-0.163-0.162v-0.323c0-0.091,0.073-0.163,0.163-0.163S25.163,24.154,25.163,24.245z M25,22.784
		c-0.089,0-0.163-0.072-0.163-0.163v-0.323c0-0.091,0.073-0.163,0.163-0.163s0.163,0.072,0.163,0.163v0.323
		C25.163,22.712,25.089,22.784,25,22.784z M25,21.811c-0.089,0-0.163-0.071-0.163-0.162v-0.323c0-0.091,0.073-0.164,0.163-0.164
		s0.163,0.073,0.163,0.164v0.323C25.163,21.738,25.089,21.811,25,21.811z M23.389,20.693l0.23-0.221
		c0.064-0.062,0.168-0.061,0.229,0.004c0.062,0.063,0.06,0.168-0.004,0.229l-0.23,0.22c-0.031,0.03-0.072,0.047-0.112,0.047
		c-0.042,0-0.086-0.018-0.118-0.051C23.322,20.857,23.325,20.755,23.389,20.693z M20.055,25.592
		c-0.006,0.03-0.026,0.053-0.045,0.074c-0.152,0.547-0.633,0.957-1.229,0.957c-0.717,0-1.298-0.581-1.298-1.297
		c0-0.717,0.582-1.299,1.298-1.299c0.716,0,1.298,0.582,1.298,1.299c0,0.066-0.028,0.124-0.038,0.188
		C20.048,25.54,20.061,25.564,20.055,25.592z M20.048,24.275c-0.043,0-0.086-0.019-0.117-0.051c-0.062-0.064-0.06-0.168,0.004-0.229
		l0.23-0.223c0.064-0.062,0.167-0.06,0.229,0.004c0.062,0.065,0.059,0.168-0.006,0.229l-0.229,0.222
		C20.129,24.259,20.089,24.275,20.048,24.275z M20.852,25.922c-0.01,0-0.021-0.002-0.033-0.004L20.5,25.852
		c-0.087-0.02-0.144-0.104-0.125-0.191c0.019-0.09,0.101-0.146,0.192-0.126l0.319,0.065c0.087,0.02,0.144,0.105,0.125,0.192
		C20.995,25.87,20.928,25.922,20.852,25.922z M21.081,23.35l-0.23,0.219c-0.031,0.031-0.071,0.047-0.112,0.047
		c-0.043,0-0.086-0.018-0.118-0.049c-0.062-0.064-0.059-0.17,0.005-0.23l0.23-0.221c0.064-0.062,0.167-0.062,0.229,0.004
		C21.147,23.184,21.146,23.286,21.081,23.35z M21.317,22.675l0.23-0.221c0.064-0.062,0.167-0.062,0.229,0.004
		c0.062,0.063,0.059,0.167-0.006,0.229l-0.23,0.221c-0.031,0.029-0.071,0.046-0.112,0.046c-0.042,0-0.085-0.017-0.117-0.05
		C21.25,22.84,21.253,22.736,21.317,22.675z M21.81,26.121c-0.011,0-0.022-0.002-0.033-0.004l-0.319-0.066
		c-0.088-0.019-0.145-0.104-0.126-0.191c0.018-0.086,0.098-0.145,0.192-0.125l0.319,0.064c0.087,0.02,0.144,0.104,0.126,0.192
		C21.953,26.068,21.886,26.121,21.81,26.121z M22.12,22.293c-0.042,0-0.085-0.016-0.117-0.051c-0.062-0.062-0.059-0.167,0.005-0.229
		l0.231-0.222c0.065-0.06,0.167-0.062,0.229,0.006c0.062,0.063,0.06,0.168-0.005,0.229l-0.23,0.221
		C22.2,22.277,22.16,22.293,22.12,22.293z M22.767,26.32c-0.011,0-0.022,0-0.034-0.004l-0.319-0.066
		c-0.087-0.02-0.144-0.104-0.125-0.191s0.099-0.146,0.192-0.127L22.799,26c0.088,0.018,0.145,0.104,0.125,0.189
		C22.91,26.27,22.843,26.32,22.767,26.32z M23.153,21.366l-0.23,0.222c-0.031,0.029-0.072,0.046-0.112,0.046
		c-0.042,0-0.085-0.018-0.117-0.05c-0.062-0.064-0.06-0.168,0.005-0.229l0.229-0.223c0.064-0.062,0.168-0.06,0.229,0.004
		C23.22,21.202,23.218,21.305,23.153,21.366z M26.629,26.449l-0.318,0.066c-0.012,0.002-0.022,0.004-0.033,0.004
		c0.002,0.035,0.021,0.065,0.021,0.104c0,0.716-0.581,1.299-1.298,1.299s-1.298-0.583-1.298-1.299c0-0.037,0.018-0.066,0.021-0.104
		c-0.01,0-0.021-0.002-0.032-0.004l-0.319-0.065c-0.088-0.019-0.144-0.104-0.126-0.192c0.019-0.086,0.101-0.146,0.192-0.124
		l0.319,0.065c0.012,0.002,0.017,0.014,0.027,0.02c0.155-0.464,0.556-0.795,1.053-0.859v-0.141c0-0.091,0.073-0.162,0.163-0.162
		s0.163,0.071,0.163,0.162v0.141c0.497,0.064,0.897,0.396,1.053,0.857c0.011-0.004,0.015-0.016,0.026-0.018l0.32-0.067
		c0.09-0.021,0.172,0.037,0.192,0.125C26.771,26.344,26.716,26.432,26.629,26.449z M26.842,21.137
		c0.062-0.062,0.167-0.064,0.229-0.004l0.229,0.223c0.065,0.062,0.068,0.164,0.007,0.229c-0.033,0.032-0.076,0.05-0.119,0.05
		c-0.039,0-0.08-0.017-0.111-0.046l-0.23-0.222C26.782,21.305,26.779,21.202,26.842,21.137z M27.585,26.25l-0.319,0.064
		c-0.012,0.002-0.021,0.006-0.033,0.006c-0.075,0-0.143-0.055-0.158-0.131c-0.018-0.088,0.039-0.174,0.126-0.191l0.319-0.066
		c0.092-0.019,0.172,0.039,0.191,0.127C27.729,26.146,27.672,26.23,27.585,26.25z M27.88,22.293c-0.042,0-0.082-0.016-0.112-0.045
		l-0.229-0.221c-0.065-0.062-0.067-0.166-0.005-0.23c0.062-0.062,0.167-0.066,0.229-0.003l0.23,0.222
		c0.064,0.062,0.068,0.164,0.006,0.229C27.965,22.277,27.922,22.293,27.88,22.293z M28.542,26.05l-0.319,0.067
		c-0.011,0.002-0.021,0.004-0.033,0.004c-0.075,0-0.143-0.053-0.157-0.13c-0.019-0.089,0.036-0.175,0.125-0.192l0.319-0.066
		c0.088-0.018,0.174,0.037,0.192,0.125S28.63,26.031,28.542,26.05z M28.688,22.902c-0.031,0.035-0.074,0.052-0.117,0.052
		c-0.041,0-0.08-0.017-0.111-0.045l-0.23-0.22c-0.064-0.063-0.067-0.166-0.006-0.23c0.063-0.066,0.166-0.066,0.229-0.006l0.231,0.22
		C28.747,22.736,28.75,22.839,28.688,22.902z M28.913,23.118c0.063-0.063,0.167-0.066,0.229-0.004l0.229,0.221
		c0.063,0.062,0.067,0.166,0.005,0.229c-0.031,0.033-0.074,0.05-0.117,0.05c-0.041,0-0.082-0.017-0.111-0.046l-0.23-0.221
		C28.854,23.286,28.852,23.184,28.913,23.118z M29.5,25.852l-0.318,0.065c-0.013,0.002-0.023,0.003-0.033,0.003
		c-0.076,0-0.146-0.054-0.16-0.129c-0.018-0.088,0.039-0.174,0.126-0.191l0.319-0.065c0.09-0.021,0.172,0.038,0.191,0.126
		C29.643,25.746,29.586,25.832,29.5,25.852z M29.609,24.008c-0.064-0.062-0.067-0.164-0.006-0.229
		c0.063-0.063,0.168-0.065,0.229-0.004l0.229,0.222c0.064,0.062,0.067,0.164,0.004,0.229c-0.03,0.031-0.073,0.049-0.116,0.049
		c-0.041,0-0.081-0.017-0.112-0.045L29.609,24.008z M31.221,26.623c-0.598,0-1.078-0.41-1.229-0.958
		c-0.019-0.021-0.038-0.043-0.044-0.073c-0.006-0.027,0.007-0.051,0.014-0.076c-0.01-0.063-0.038-0.121-0.038-0.188
		c0-0.718,0.581-1.3,1.298-1.3s1.299,0.582,1.299,1.3C32.518,26.042,31.938,26.623,31.221,26.623z"/>
</g>
</svg>
